<svg width="100" height="100" viewBox="0 0 100 100" fill="none" xmlns="http://www.w3.org/2000/svg">
<path d="M84.3002 86.38C88.9502 81.995 92.7552 76.73 95.4552 70.855L50.0002 32.825L4.53516 70.83C7.24516 76.74 11.0802 82.03 15.7552 86.43L50.0002 57.725L84.3002 86.38Z" fill="white"/>
<path d="M50 79.14L30.02 95.845C36.14 98.515 42.895 100 50 100C57.105 100 63.855 98.515 69.97 95.85L50 79.14Z" fill="white"/>
<path d="M50 11.41L99.9 53.1C99.965 52.075 100 51.045 100 50.005C100 22.385 77.615 0 50 0C22.385 0 0 22.385 0 50C0 51.085 0.04 52.165 0.105 53.23L50 11.41Z" fill="white"/>
</svg>
