<svg width="100" height="100" viewBox="0 0 100 100" fill="none" xmlns="http://www.w3.org/2000/svg">
<path d="M49.6999 38.98L79.2399 9.44C71.0149 3.5 60.9199 0 49.9999 0C39.0799 0 28.6949 3.6 20.4099 9.695L49.6999 38.985V38.98Z" fill="white"/>
<path d="M90.675 20.92L61.155 50.44L90.305 79.59C96.395 71.305 100 61.075 100 50C100 38.925 96.545 29.11 90.675 20.915V20.92Z" fill="white"/>
<path d="M38.245 50.435L9.075 21.265C3.355 29.395 0 39.3 0 49.995C0 60.69 3.5 71.015 9.44 79.235L38.245 50.43V50.435Z" fill="white"/>
<path d="M49.6999 61.89L20.9199 90.67C29.1149 96.54 39.1549 99.995 50.0049 99.995C60.8549 99.995 70.6049 96.635 78.7349 90.92L49.7049 61.89H49.6999Z" fill="white"/>
</svg>
